<?xml version="1.0" encoding="UTF-8"?>
<svg xmlns="http://www.w3.org/2000/svg" width="504" height="111" viewBox="0 0 504 111" fill="none">
  <g clip-path="url(#clip0_1023_141)">
    <path d="M81.11 78.55L69.31 66.24L67.91 67.58C64.73 70.63 60.55 72.31 56.14 72.31C46.76 72.31 39.13 64.68 39.13 55.3C39.13 45.92 46.76 38.29 56.14 38.29C60.68 38.29 64.96 40.06 68.17 43.27L69.54 44.64L77.35 36.82L77.37 36.84L96.22 17.98L94.45 16.21C84.01 5.75 70.12 0 55.34 0C24.83 0 0 24.83 0 55.34C0 85.86 24.83 110.68 55.34 110.68C69.68 110.68 83.27 105.22 93.62 95.3L95.43 93.57L81.07 78.59L81.11 78.55ZM5 55.34C5 52.84 5.19 50.39 5.54 47.98L21.97 50.88C21.78 52.34 21.67 53.83 21.67 55.34C21.67 56.49 21.73 57.64 21.84 58.76L5.41 61.66C5.15 59.59 5 57.48 5 55.34ZM58.92 21.34V5.14C63.41 5.45 67.77 6.35 71.94 7.8L66.48 22.81C64.04 22.04 61.51 21.55 58.92 21.34ZM54.74 21.25C52.11 21.36 49.56 21.77 47.12 22.44L41.48 6.96C45.7 5.75 50.14 5.07 54.74 5.02V21.25V21.25ZM43.15 23.8C40.96 24.71 38.89 25.83 36.96 27.15C36.77 27.28 36.57 27.4 36.38 27.53L25.64 14.73C29.26 12.08 33.24 9.9 37.5 8.28L43.15 23.8ZM22.78 46.78L6.33 43.88C7.39 39.37 9.04 35.09 11.22 31.13L25.66 39.47C24.43 41.76 23.46 44.21 22.78 46.78ZM22.53 62.89C23.13 65.48 24.02 67.96 25.18 70.29L10.73 78.63C8.63 74.63 7.06 70.32 6.09 65.79L22.53 62.89ZM41.15 85.87C41.5 86.04 41.86 86.21 42.22 86.37L36.52 102.03C32.3 100.32 28.36 98.06 24.79 95.33L35.52 82.55C37.28 83.83 39.17 84.94 41.15 85.87ZM46.14 87.85C48.55 88.59 51.08 89.07 53.69 89.25V105.64C49.1 105.49 44.67 104.74 40.47 103.44L46.14 87.85ZM57.88 89.31C60.46 89.18 62.99 88.76 65.44 88.07L70.96 103.22C66.76 104.58 62.38 105.39 57.89 105.62V89.31H57.88ZM69.48 39.2C65.74 36.09 61.07 34.39 56.14 34.39C44.62 34.39 35.25 43.76 35.25 55.28C35.25 66.8 44.62 76.17 56.14 76.17C60.9 76.17 65.44 74.57 69.13 71.64L74.19 76.93C68.96 81.5 62.32 84.01 55.33 84.01C39.52 84.01 26.66 71.15 26.66 55.34C26.66 39.53 39.52 26.67 55.33 26.67C62.52 26.67 69.3 29.29 74.58 34.09L69.48 39.2ZM77.99 29.15C75.66 27.19 73.1 25.58 70.38 24.32L75.83 9.34C80.64 11.49 85.12 14.4 89.12 18.02L77.99 29.15ZM22.37 17.35L33.08 30.11C31.13 31.83 29.38 33.78 27.87 35.91L13.4 27.55C15.92 23.75 18.94 20.33 22.37 17.35ZM12.83 82.26L27.28 73.92C28.72 76.1 30.42 78.09 32.31 79.87L21.58 92.65C18.22 89.61 15.27 86.1 12.83 82.26ZM74.87 101.76L69.38 86.68C72.22 85.48 74.91 83.89 77.36 81.94L88.32 93.38C84.26 96.9 79.73 99.72 74.87 101.76Z" fill="white"></path>
  </g>
  <path d="M152.2 67.2H155.48C155.693 68.0533 155.88 69.0933 156.04 70.32C156.253 71.4933 156.413 72.7733 156.52 74.16C156.68 75.4933 156.787 76.8267 156.84 78.16C156.893 79.4933 156.92 80.6933 156.92 81.76C155.053 82.9333 152.707 83.76 149.88 84.24C147.107 84.72 144.253 84.96 141.32 84.96C136.893 84.96 132.867 84.4267 129.24 83.36C125.667 82.24 122.6 80.5067 120.04 78.16C117.533 75.76 115.587 72.7467 114.2 69.12C112.813 65.44 112.12 61.04 112.12 55.92C112.12 50.8533 112.867 46.5067 114.36 42.88C115.907 39.2 117.96 36.1867 120.52 33.84C123.08 31.4933 126.04 29.7867 129.4 28.72C132.813 27.6 136.387 27.04 140.12 27.04C143.64 27.04 146.813 27.3067 149.64 27.84C152.52 28.32 154.867 28.9867 156.68 29.84C156.68 30.6933 156.627 31.7867 156.52 33.12C156.467 34.4533 156.333 35.8667 156.12 37.36C155.96 38.8 155.747 40.24 155.48 41.68C155.267 43.0667 155.053 44.24 154.84 45.2H151.48L147.08 33.12C146.6 32.8533 145.827 32.64 144.76 32.48C143.693 32.32 142.6 32.24 141.48 32.24C139.293 32.24 137.24 32.6933 135.32 33.6C133.4 34.4533 131.693 35.84 130.2 37.76C128.707 39.68 127.533 42.16 126.68 45.2C125.827 48.1867 125.4 51.7867 125.4 56C125.4 63.6267 126.92 69.4933 129.96 73.6C133 77.7067 137.133 79.76 142.36 79.76C143.853 79.76 145.107 79.6533 146.12 79.44C147.187 79.1733 147.907 78.8267 148.28 78.4L152.2 67.2ZM162.354 56C162.354 51.84 162.941 48 164.114 44.48C165.288 40.9067 167.021 37.84 169.314 35.28C171.608 32.6667 174.434 30.64 177.794 29.2C181.154 27.76 185.021 27.04 189.394 27.04C193.768 27.04 197.634 27.76 200.994 29.2C204.354 30.64 207.154 32.6667 209.394 35.28C211.688 37.84 213.421 40.9067 214.594 44.48C215.768 48 216.354 51.84 216.354 56C216.354 60.16 215.768 64.0267 214.594 67.6C213.421 71.12 211.688 74.1867 209.394 76.8C207.154 79.36 204.354 81.36 200.994 82.8C197.634 84.24 193.768 84.96 189.394 84.96C185.021 84.96 181.154 84.24 177.794 82.8C174.434 81.36 171.608 79.36 169.314 76.8C167.021 74.1867 165.288 71.12 164.114 67.6C162.941 64.0267 162.354 60.16 162.354 56ZM175.954 56C175.954 59.4133 176.221 62.5867 176.754 65.52C177.288 68.4 178.114 70.9067 179.234 73.04C180.408 75.12 181.874 76.7733 183.634 78C185.448 79.1733 187.608 79.76 190.114 79.76C192.408 79.76 194.354 79.1733 195.954 78C197.554 76.7733 198.861 75.12 199.874 73.04C200.888 70.9067 201.608 68.4 202.034 65.52C202.514 62.5867 202.754 59.4133 202.754 56C202.754 52.5867 202.488 49.44 201.954 46.56C201.474 43.6267 200.674 41.12 199.554 39.04C198.488 36.9067 197.048 35.2533 195.234 34.08C193.474 32.8533 191.314 32.24 188.754 32.24C186.301 32.24 184.248 32.8533 182.594 34.08C180.941 35.2533 179.608 36.9067 178.594 39.04C177.634 41.12 176.941 43.6267 176.514 46.56C176.141 49.44 175.954 52.5867 175.954 56ZM258.747 28H278.587V31.04C277.574 31.84 276.454 32.56 275.227 33.2C274 33.7867 272.854 34.24 271.787 34.56V84.96H264.987L236.747 44.16L233.547 38H233.307L234.027 44.4V77.76C235.094 78.0267 236.267 78.48 237.547 79.12C238.88 79.7067 240 80.32 240.907 80.96V84H221.147V80.96C222.107 80.32 223.147 79.7333 224.267 79.2C225.44 78.6133 226.64 78.1333 227.867 77.76V34.08C226.8 33.6533 225.734 33.1733 224.667 32.64C223.6 32.1067 222.64 31.5467 221.787 30.96V28H239.067L262.027 61.28L265.707 68.16H266.027L265.627 61.28V34.56C264.347 34.1333 263.094 33.6267 261.867 33.04C260.694 32.4 259.654 31.7333 258.747 31.04V28ZM292.732 77.36C293.319 77.9467 294.145 78.5067 295.212 79.04C296.279 79.52 297.692 79.76 299.452 79.76C302.385 79.76 304.812 79.0133 306.732 77.52C308.705 75.9733 309.692 73.84 309.692 71.12C309.692 69.1467 309.052 67.4933 307.772 66.16C306.545 64.8267 304.972 63.6 303.052 62.48C301.132 61.36 299.079 60.2667 296.892 59.2C294.705 58.08 292.652 56.7733 290.732 55.28C288.812 53.7867 287.212 52.0267 285.932 50C284.705 47.92 284.092 45.36 284.092 42.32C284.092 39.7067 284.572 37.44 285.532 35.52C286.492 33.6 287.799 32.0267 289.452 30.8C291.159 29.52 293.159 28.5867 295.452 28C297.745 27.36 300.225 27.04 302.892 27.04C306.145 27.04 309.159 27.28 311.932 27.76C314.759 28.1867 317.292 28.88 319.532 29.84C319.479 30.9067 319.372 32.1333 319.212 33.52C319.105 34.9067 318.945 36.2933 318.732 37.68C318.519 39.0133 318.279 40.2933 318.012 41.52C317.799 42.6933 317.585 43.68 317.372 44.48H314.092L310.412 33.52C309.772 33.2 308.812 32.9067 307.532 32.64C306.305 32.3733 305.025 32.24 303.692 32.24C301.452 32.24 299.559 32.8267 298.012 34C296.465 35.1733 295.692 36.88 295.692 39.12C295.692 41.1467 296.332 42.88 297.612 44.32C298.892 45.7067 300.492 46.9867 302.412 48.16C304.332 49.3333 306.412 50.5067 308.652 51.68C310.945 52.8 313.052 54.1067 314.972 55.6C316.892 57.0933 318.492 58.8533 319.772 60.88C321.052 62.8533 321.692 65.3067 321.692 68.24C321.692 73.5733 319.879 77.7067 316.252 80.64C312.679 83.52 307.399 84.96 300.412 84.96C298.705 84.96 296.972 84.8533 295.212 84.64C293.505 84.4267 291.879 84.1333 290.332 83.76C288.785 83.3867 287.399 82.9867 286.172 82.56C284.999 82.1333 284.119 81.68 283.532 81.2C283.585 79.9733 283.719 78.6667 283.932 77.28C284.145 75.84 284.359 74.4267 284.572 73.04C284.839 71.6 285.105 70.24 285.372 68.96C285.639 67.68 285.905 66.56 286.172 65.6H289.452L292.732 77.36ZM428.774 28C428.667 30.4 428.48 32.88 428.214 35.44C427.947 38 427.6 40.4 427.174 42.64H423.894L420.214 33.2H405.254V52.8H415.014L418.534 46.64H421.094C421.36 49.2533 421.494 52.16 421.494 55.36C421.494 58.56 421.36 61.5467 421.094 64.32H418.534L415.014 58H405.254V78.8H420.854L425.094 68.64H428.374C428.587 69.6533 428.8 70.8 429.014 72.08C429.227 73.36 429.387 74.6933 429.494 76.08C429.654 77.4133 429.76 78.7733 429.814 80.16C429.92 81.5467 429.974 82.8267 429.974 84H386.694V80.96C387.6 80.48 388.614 80.0267 389.734 79.6C390.854 79.1733 392.027 78.8533 393.254 78.64V33.36C392.187 33.1467 391.04 32.8533 389.814 32.48C388.64 32.0533 387.6 31.5733 386.694 31.04V28H428.774ZM434.975 28H461.215V31.04C460.095 31.6267 458.842 32.1333 457.455 32.56C456.122 32.9333 454.815 33.2 453.535 33.36V78.8H468.975L474.335 64.48H477.615C477.828 65.7067 478.015 67.1467 478.175 68.8C478.388 70.4533 478.548 72.1867 478.655 74C478.762 75.8133 478.842 77.6 478.895 79.36C478.948 81.12 478.948 82.6667 478.895 84H434.975V80.96C436.202 80.32 437.348 79.8133 438.415 79.44C439.535 79.0667 440.575 78.8 441.535 78.64V33.36C438.922 32.9333 436.735 32.16 434.975 31.04V28ZM485.056 78.32C485.056 76.4 485.669 74.8533 486.896 73.68C488.122 72.5067 489.749 71.92 491.776 71.92C493.802 71.92 495.456 72.5067 496.736 73.68C498.016 74.8533 498.656 76.4 498.656 78.32C498.656 80.24 498.016 81.7867 496.736 82.96C495.456 84.08 493.802 84.64 491.776 84.64C489.749 84.64 488.122 84.08 486.896 82.96C485.669 81.7867 485.056 80.24 485.056 78.32Z" fill="white"></path>
  <path d="M327.901 56C327.901 51.84 328.488 48 329.661 44.48C330.835 40.9067 332.568 37.84 334.861 35.28C337.155 32.6667 339.981 30.64 343.341 29.2C346.701 27.76 350.568 27.04 354.941 27.04C359.315 27.04 363.181 27.76 366.541 29.2C369.901 30.64 372.701 32.6667 374.941 35.28C377.235 37.84 378.968 40.9067 380.141 44.48C381.315 48 381.901 51.84 381.901 56C381.901 60.16 381.315 64.0267 380.141 67.6C378.968 71.12 377.235 74.1867 374.941 76.8C372.701 79.36 369.901 81.36 366.541 82.8C363.181 84.24 359.315 84.96 354.941 84.96C350.568 84.96 346.701 84.24 343.341 82.8C339.981 81.36 337.155 79.36 334.861 76.8C332.568 74.1867 330.835 71.12 329.661 67.6C328.488 64.0267 327.901 60.16 327.901 56ZM341.501 56C341.501 59.4133 341.768 62.5867 342.301 65.52C342.835 68.4 343.661 70.9067 344.781 73.04C345.955 75.12 347.421 76.7733 349.181 78C350.995 79.1733 353.155 79.76 355.661 79.76C357.955 79.76 359.901 79.1733 361.501 78C363.101 76.7733 364.408 75.12 365.421 73.04C366.435 70.9067 367.155 68.4 367.581 65.52C368.061 62.5867 368.301 59.4133 368.301 56C368.301 52.5867 368.035 49.44 367.501 46.56C367.021 43.6267 366.221 41.12 365.101 39.04C364.035 36.9067 362.595 35.2533 360.781 34.08C359.021 32.8533 356.861 32.24 354.301 32.24C351.848 32.24 349.795 32.8533 348.141 34.08C346.488 35.2533 345.155 36.9067 344.141 39.04C343.181 41.12 342.488 43.6267 342.061 46.56C341.688 49.44 341.501 52.5867 341.501 56Z" fill="white"></path>
  <defs>
    <clipPath id="clip0_1023_141">
      <rect width="96.23" height="110.69" fill="white"></rect>
    </clipPath>
  </defs>
</svg>
