<svg width="174" height="38" viewBox="0 0 174 38" fill="none" xmlns="http://www.w3.org/2000/svg">
<mask id="mask0_485_1126" style="mask-type:luminance" maskUnits="userSpaceOnUse" x="0" y="0" width="34" height="38">
<path d="M33.2223 0H0V37.8939H33.2223V0Z" fill="white"/>
</mask>
<g mask="url(#mask0_485_1126)">
<path d="M28.0023 26.891L23.9285 22.6768L23.4451 23.1355C22.3473 24.1796 20.9042 24.7548 19.3817 24.7548C16.1433 24.7548 13.5092 22.1427 13.5092 18.9315C13.5092 15.7204 16.1433 13.1083 19.3817 13.1083C20.949 13.1083 22.4267 13.7142 23.5349 14.8132L24.0079 15.2822L26.7042 12.605L26.7111 12.6119L33.2188 6.15532L32.6077 5.54937C29.0035 1.96847 24.2081 0 19.1055 0C8.57226 0 0 8.50036 0 18.9452C0 29.3935 8.57226 37.8905 19.1055 37.8905C24.0562 37.8905 28.748 36.0213 32.3212 32.6252L32.9461 32.033L27.9885 26.9047L28.0023 26.891ZM1.72619 18.9452C1.72619 18.0894 1.79179 17.2506 1.91262 16.4256L7.58488 17.4184C7.51929 17.9182 7.48131 18.4283 7.48131 18.9452C7.48131 19.3389 7.50202 19.7326 7.54 20.116L1.86774 21.1088C1.77798 20.4002 1.72619 19.6778 1.72619 18.9452ZM20.3414 7.30559V1.75964C21.8915 1.86577 23.3968 2.17387 24.8364 2.67027L22.9514 7.80883C22.1091 7.54523 21.2356 7.37748 20.3414 7.30559ZM18.8983 7.27477C17.9904 7.31243 17.11 7.45279 16.2676 7.68216L14.3205 2.3827C15.7774 1.96847 17.3102 1.73568 18.8983 1.71856V7.27477ZM14.897 8.14775C14.141 8.45928 13.4263 8.8427 12.76 9.29459C12.6944 9.3391 12.6254 9.38018 12.5598 9.42469L8.85191 5.0427C10.1017 4.1355 11.4757 3.38919 12.9464 2.83459L14.897 8.14775ZM7.86452 16.0148L2.18536 15.022C2.55131 13.478 3.12095 12.0128 3.87357 10.6571L8.85881 13.5123C8.43417 14.2962 8.09929 15.135 7.86452 16.0148ZM7.77822 21.5299C7.98536 22.4166 8.29262 23.2656 8.6931 24.0632L3.7044 26.9184C2.9794 25.549 2.43738 24.0735 2.1025 22.5227L7.77822 21.5299ZM14.2065 29.3969C14.3274 29.4551 14.4517 29.5133 14.576 29.5681L12.6081 34.9292C11.1512 34.3438 9.79095 33.5701 8.55845 32.6355L12.2629 28.2604C12.8705 28.6986 13.523 29.0786 14.2065 29.3969ZM15.9293 30.0748C16.7613 30.3281 17.6348 30.4924 18.5358 30.5541V36.165C16.9512 36.1137 15.4218 35.8569 13.9718 35.4119L15.9293 30.0748ZM19.9824 30.5746C20.8731 30.5301 21.7465 30.3863 22.5924 30.1501L24.4981 35.3366C23.0481 35.8022 21.536 36.0795 19.9858 36.1582V30.5746H19.9824ZM23.9871 13.4198C22.696 12.3551 21.0837 11.7732 19.3817 11.7732C15.4045 11.7732 12.1696 14.9809 12.1696 18.9247C12.1696 22.8685 15.4045 26.0762 19.3817 26.0762C21.025 26.0762 22.5924 25.5285 23.8663 24.5254L25.6132 26.3364C23.8076 27.9009 21.5152 28.7602 19.102 28.7602C13.6438 28.7602 9.20405 24.3577 9.20405 18.9452C9.20405 13.5328 13.6438 9.13027 19.102 9.13027C21.5843 9.13027 23.925 10.0272 25.7479 11.6705L23.9871 13.4198ZM26.9251 9.97928C26.1207 9.30829 25.2369 8.75712 24.2979 8.32577L26.1794 3.19748C27.84 3.93351 29.3867 4.92973 30.7676 6.16901L26.9251 9.97928ZM7.72298 5.93964L11.4205 10.3079C10.7473 10.8968 10.1431 11.5643 9.62179 12.2935L4.62619 9.43153C5.49619 8.13063 6.53881 6.95982 7.72298 5.93964ZM4.42941 28.1611L9.4181 25.3059C9.91524 26.0523 10.5021 26.7335 11.1546 27.3429L7.45024 31.718C6.29024 30.6773 5.27179 29.4757 4.42941 28.1611ZM25.848 34.8368L23.9526 29.6742C24.9331 29.2634 25.8618 28.7191 26.7076 28.0515L30.4914 31.9679C29.0898 33.173 27.5258 34.1384 25.848 34.8368Z" fill="#FF4A17"/>
</g>
<path d="M52.5453 23.0054H53.6777C53.7512 23.2975 53.8157 23.6536 53.871 24.0735C53.9445 24.4752 53.9998 24.9134 54.0367 25.3881C54.0919 25.8446 54.1289 26.3011 54.1472 26.7575C54.1655 27.2139 54.1748 27.6248 54.1748 27.9899C53.5302 28.3916 52.7203 28.6746 51.7443 28.8389C50.787 29.0033 49.8017 29.0854 48.7891 29.0854C47.2607 29.0854 45.8708 28.9029 44.6186 28.5377C43.3851 28.1543 42.3262 27.5609 41.4424 26.7575C40.5769 25.9359 39.9051 24.9043 39.4262 23.6627C38.9474 22.4029 38.7081 20.8966 38.7081 19.1438C38.7081 17.4093 38.966 15.9212 39.4815 14.6797C40.0155 13.4198 40.7243 12.3883 41.6081 11.5849C42.4919 10.7815 43.5138 10.1973 44.6738 9.83209C45.8521 9.44867 47.086 9.25696 48.3748 9.25696C49.59 9.25696 50.6855 9.34826 51.6615 9.53083C52.6557 9.69516 53.466 9.9234 54.0919 10.2155C54.0919 10.5076 54.0736 10.882 54.0367 11.3384C54.0184 11.7948 53.9721 12.2787 53.8986 12.7899C53.8434 13.2829 53.7698 13.7759 53.6777 14.2688C53.6041 14.7436 53.5302 15.1452 53.4567 15.4739H52.2967L50.7777 11.3384C50.6119 11.2471 50.3451 11.1741 49.9767 11.1193C49.6083 11.0645 49.231 11.0371 48.8443 11.0371C48.0893 11.0371 47.3805 11.1923 46.7177 11.5027C46.0548 11.7948 45.4655 12.2696 44.95 12.9269C44.4346 13.5842 44.0293 14.4332 43.7348 15.4739C43.4403 16.4964 43.2929 17.7288 43.2929 19.1712C43.2929 21.7821 43.8177 23.7905 44.8672 25.1964C45.9167 26.6023 47.3436 27.3052 49.1481 27.3052C49.6636 27.3052 50.0965 27.2687 50.4462 27.1957C50.8146 27.1044 51.0632 26.9857 51.1919 26.8397L52.5453 23.0054ZM56.0508 19.1712C56.0508 17.747 56.2535 16.4325 56.6584 15.2274C57.0637 14.0041 57.662 12.9543 58.4537 12.0779C59.2457 11.1832 60.2213 10.4894 61.3813 9.99642C62.5413 9.50344 63.8763 9.25696 65.3861 9.25696C66.8961 9.25696 68.2308 9.50344 69.3908 9.99642C70.5508 10.4894 71.5175 11.1832 72.2908 12.0779C73.0828 12.9543 73.6811 14.0041 74.0861 15.2274C74.4914 16.4325 74.6937 17.747 74.6937 19.1712C74.6937 20.5953 74.4914 21.9191 74.0861 23.1424C73.6811 24.3474 73.0828 25.3973 72.2908 26.2919C71.5175 27.1683 70.5508 27.853 69.3908 28.346C68.2308 28.8389 66.8961 29.0854 65.3861 29.0854C63.8763 29.0854 62.5413 28.8389 61.3813 28.346C60.2213 27.853 59.2457 27.1683 58.4537 26.2919C57.662 25.3973 57.0637 24.3474 56.6584 23.1424C56.2535 21.9191 56.0508 20.5953 56.0508 19.1712ZM60.7461 19.1712C60.7461 20.3397 60.8382 21.4261 61.0222 22.4303C61.2066 23.4162 61.4918 24.2744 61.8784 25.0047C62.2837 25.7168 62.7899 26.2828 63.3975 26.7027C64.0238 27.1044 64.7695 27.3052 65.6346 27.3052C66.4266 27.3052 67.0984 27.1044 67.6508 26.7027C68.2032 26.2828 68.6544 25.7168 69.0042 25.0047C69.3542 24.2744 69.6028 23.4162 69.7499 22.4303C69.9156 21.4261 69.9984 20.3397 69.9984 19.1712C69.9984 18.0027 69.9066 16.9254 69.7222 15.9395C69.5565 14.9353 69.2803 14.0771 68.8937 13.3651C68.5257 12.6347 68.0285 12.0687 67.4022 11.667C66.7946 11.2471 66.0489 11.0371 65.1651 11.0371C64.3182 11.0371 63.6095 11.2471 63.0384 11.667C62.4678 12.0687 62.0076 12.6347 61.6575 13.3651C61.3261 14.0771 61.0868 14.9353 60.9394 15.9395C60.8106 16.9254 60.7461 18.0027 60.7461 19.1712ZM89.3294 9.58561H96.1789V10.6263C95.8292 10.9002 95.4425 11.1467 95.0189 11.3658C94.5953 11.5666 94.1996 11.7218 93.8313 11.8314V29.0854H91.4836L81.7341 15.1179L80.6294 13.009H80.5465L80.7951 15.2V26.6206C81.1634 26.7119 81.5684 26.867 82.0103 27.0861C82.4705 27.287 82.8572 27.497 83.1703 27.7161V28.7568H76.3484V27.7161C76.6798 27.497 77.0389 27.2961 77.4255 27.1135C77.8305 26.9127 78.2448 26.7484 78.6684 26.6206V11.667C78.3 11.521 77.932 11.3566 77.5636 11.1741C77.1953 10.9915 76.8638 10.7998 76.5694 10.5989V9.58561H82.5351L90.4617 20.9788L91.7322 23.3341H91.8427L91.7046 20.9788V11.8314C91.2627 11.6853 90.8301 11.5119 90.4065 11.311C90.0015 11.0919 89.6425 10.8637 89.3294 10.6263V9.58561ZM101.062 26.4836C101.265 26.6845 101.55 26.8762 101.918 27.0588C102.287 27.2231 102.775 27.3052 103.382 27.3052C104.395 27.3052 105.233 27.0496 105.896 26.5384C106.577 26.0089 106.918 25.2786 106.918 24.3474C106.918 23.6719 106.697 23.1058 106.255 22.6494C105.831 22.1929 105.288 21.773 104.625 21.3896C103.962 21.0061 103.254 20.6319 102.498 20.2667C101.743 19.8833 101.035 19.4359 100.372 18.9247C99.7089 18.4135 99.1566 17.811 98.7147 17.1171C98.2911 16.4051 98.0794 15.5287 98.0794 14.4879C98.0794 13.5933 98.2451 12.8173 98.5766 12.16C98.908 11.5027 99.3592 10.9641 99.9299 10.5442C100.519 10.106 101.21 9.78646 102.001 9.58561C102.793 9.36651 103.649 9.25696 104.57 9.25696C105.693 9.25696 106.734 9.33912 107.691 9.50344C108.667 9.64952 109.541 9.88687 110.315 10.2155C110.296 10.5807 110.259 11.0006 110.204 11.4753C110.167 11.9501 110.112 12.4248 110.038 12.8995C109.965 13.3559 109.882 13.7941 109.79 14.2141C109.716 14.6157 109.642 14.9535 109.569 15.2274H108.437L107.166 11.4753C106.945 11.3658 106.614 11.2654 106.172 11.1741C105.748 11.0828 105.306 11.0371 104.846 11.0371C104.073 11.0371 103.419 11.238 102.885 11.6397C102.351 12.0413 102.084 12.6256 102.084 13.3925C102.084 14.0863 102.305 14.6797 102.747 15.1726C103.189 15.6474 103.741 16.0856 104.404 16.4872C105.067 16.8889 105.785 17.2906 106.558 17.6923C107.35 18.0757 108.078 18.523 108.74 19.0343C109.403 19.5455 109.956 20.148 110.398 20.8418C110.839 21.5174 111.06 22.3573 111.06 23.3615C111.06 25.1873 110.434 26.6023 109.182 27.6065C107.949 28.5925 106.126 29.0854 103.714 29.0854C103.124 29.0854 102.526 29.0489 101.918 28.9759C101.329 28.9029 100.768 28.8024 100.234 28.6746C99.6996 28.5468 99.2211 28.4099 98.7975 28.2638C98.3926 28.1177 98.0887 27.9625 97.8861 27.7982C97.9044 27.3783 97.9506 26.931 98.0242 26.4562C98.0977 25.9633 98.1716 25.4794 98.2451 25.0047C98.3373 24.5117 98.4291 24.0461 98.5213 23.6079C98.6135 23.1698 98.7053 22.7863 98.7975 22.4577H99.9299L101.062 26.4836ZM148.029 9.58561C147.992 10.4072 147.928 11.2562 147.836 12.1326C147.744 13.009 147.624 13.8307 147.477 14.5975H146.344L145.074 11.3658H139.909V18.0757H143.279L144.494 15.9669H145.378C145.47 16.8615 145.516 17.8566 145.516 18.9521C145.516 20.0476 145.47 21.0701 145.378 22.0195H144.494L143.279 19.8559H139.909V26.9766H145.295L146.759 23.4984H147.891C147.965 23.8453 148.038 24.2379 148.112 24.6761C148.186 25.1143 148.241 25.5707 148.278 26.0454C148.333 26.5019 148.37 26.9675 148.388 27.4422C148.425 27.9169 148.443 28.3551 148.443 28.7568H133.502V27.7161C133.814 27.5517 134.164 27.3965 134.551 27.2505C134.938 27.1044 135.343 26.9948 135.766 26.9218V11.4206C135.398 11.3475 135.002 11.2471 134.579 11.1193C134.173 10.9732 133.814 10.8089 133.502 10.6263V9.58561H148.029ZM150.17 9.58561H159.229V10.6263C158.842 10.8272 158.41 11.0006 157.931 11.1467C157.471 11.2745 157.02 11.3658 156.578 11.4206V26.9766H161.908L163.759 22.0743H164.891C164.964 22.4942 165.029 22.9872 165.084 23.5532C165.158 24.1192 165.213 24.7126 165.25 25.3334C165.287 25.9541 165.315 26.5658 165.333 27.1683C165.351 27.7708 165.351 28.3003 165.333 28.7568H150.17V27.7161C150.594 27.497 150.989 27.3235 151.358 27.1957C151.744 27.0679 152.103 26.9766 152.435 26.9218V11.4206C151.533 11.2745 150.778 11.0098 150.17 10.6263V9.58561ZM167.46 26.8123C167.46 26.155 167.671 25.6255 168.095 25.2238C168.518 24.8221 169.08 24.6213 169.78 24.6213C170.479 24.6213 171.05 24.8221 171.492 25.2238C171.934 25.6255 172.155 26.155 172.155 26.8123C172.155 27.4696 171.934 27.9991 171.492 28.4007C171.05 28.7842 170.479 28.9759 169.78 28.9759C169.08 28.9759 168.518 28.7842 168.095 28.4007C167.671 27.9991 167.46 27.4696 167.46 26.8123Z" fill="#1A384C"/>
<path d="M113.204 19.1712C113.204 17.747 113.407 16.4325 113.811 15.2274C114.217 14.0041 114.815 12.9543 115.607 12.0779C116.399 11.1832 117.374 10.4894 118.534 9.99642C119.694 9.50344 121.029 9.25696 122.539 9.25696C124.049 9.25696 125.384 9.50344 126.544 9.99642C127.704 10.4894 128.671 11.1832 129.444 12.0779C130.236 12.9543 130.834 14.0041 131.239 15.2274C131.644 16.4325 131.847 17.747 131.847 19.1712C131.847 20.5953 131.644 21.9191 131.239 23.1424C130.834 24.3474 130.236 25.3973 129.444 26.2919C128.671 27.1683 127.704 27.853 126.544 28.346C125.384 28.8389 124.049 29.0854 122.539 29.0854C121.029 29.0854 119.694 28.8389 118.534 28.346C117.374 27.853 116.399 27.1683 115.607 26.2919C114.815 25.3973 114.217 24.3474 113.811 23.1424C113.407 21.9191 113.204 20.5953 113.204 19.1712ZM117.899 19.1712C117.899 20.3397 117.991 21.4261 118.175 22.4303C118.36 23.4162 118.645 24.2744 119.031 25.0047C119.437 25.7168 119.943 26.2828 120.551 26.7027C121.177 27.1044 121.923 27.3052 122.788 27.3052C123.58 27.3052 124.251 27.1044 124.804 26.7027C125.356 26.2828 125.807 25.7168 126.157 25.0047C126.507 24.2744 126.756 23.4162 126.903 22.4303C127.069 21.4261 127.151 20.3397 127.151 19.1712C127.151 18.0027 127.06 16.9254 126.875 15.9395C126.71 14.9353 126.433 14.0771 126.047 13.3651C125.679 12.6347 125.182 12.0687 124.555 11.667C123.948 11.2471 123.202 11.0371 122.318 11.0371C121.471 11.0371 120.762 11.2471 120.191 11.667C119.621 12.0687 119.161 12.6347 118.811 13.3651C118.479 14.0771 118.24 14.9353 118.092 15.9395C117.964 16.9254 117.899 18.0027 117.899 19.1712Z" fill="#FD9071"/>
</svg>
